<?xml version="1.0" encoding="utf-8"?>
<!-- Generator: Adobe Illustrator 22.0.1, SVG Export Plug-In . SVG Version: 6.00 Build 0)  -->
<svg version="1.1" id="Layer_1" xmlns="http://www.w3.org/2000/svg" xmlns:xlink="http://www.w3.org/1999/xlink" x="0px" y="0px"
	 viewBox="0 0 96 96" style="enable-background:new 0 0 96 96;" xml:space="preserve">
<style type="text/css">
	.st0{fill:#AAAAAA;}
</style>
<g>
	<path class="st0" d="M20,4C13.4,4,8,9.6,8,16.4V80c0,6.6,5.4,12,12.1,12H88V4H20z M80,84H20.1c-2.2,0-4.1-1.8-4.1-4.1V67.3
		c1.3,0.4,2.6,0.7,4,0.7h60v-8H20c-2.2,0-4-1.8-4-4V16.4c0-2.4,1.8-4.4,4-4.4h60V84z"/>
	<rect x="32" y="20" class="st0" width="32" height="8"/>
	<rect x="32" y="36" class="st0" width="32" height="8"/>
</g>
</svg>
