<?xml version="1.0" encoding="utf-8"?>
<!-- Generator: Adobe Illustrator 22.0.1, SVG Export Plug-In . SVG Version: 6.00 Build 0)  -->
<svg version="1.1" id="Layer_1" xmlns="http://www.w3.org/2000/svg" xmlns:xlink="http://www.w3.org/1999/xlink" x="0px" y="0px"
	 viewBox="0 0 96 96" style="enable-background:new 0 0 96 96;" xml:space="preserve">
<style type="text/css">
	.st0{fill:#AAAAAA;}
</style>
<g>
	<g>
		<path class="st0" d="M48,96.1c-26.5,0-48-21.5-48-48S21.5,0,48,0s48,21.5,48,48S74.5,96.1,48,96.1z M48,8C25.9,8,8,26,8,48
			c0,22.1,18,40,40,40c22.1,0,40-18,40-40S70.1,8,48,8z"/>
	</g>
	<g>
		<path class="st0" d="M52,68h-8V52h4c6.6,0,12-5.4,12-12s-5.4-12-12-12s-12,5.4-12,12c0,1.7,0.3,3.3,1,4.8L29.7,48
			c-1.1-2.5-1.7-5.2-1.7-8c0-11,9-20,20-20s20,9,20,20c0,9.7-6.9,17.7-16,19.6V68z"/>
	</g>
	<g>
		<rect x="44" y="72" class="st0" width="8" height="8"/>
	</g>
</g>
</svg>
