<?xml version="1.0" encoding="utf-8"?>
<!-- Generator: Adobe Illustrator 22.0.1, SVG Export Plug-In . SVG Version: 6.00 Build 0)  -->
<svg version="1.1" id="Layer_1" xmlns="http://www.w3.org/2000/svg" xmlns:xlink="http://www.w3.org/1999/xlink" x="0px" y="0px"
	 viewBox="0 0 96 96" style="enable-background:new 0 0 96 96;" xml:space="preserve">
<style type="text/css">
	.st0{fill:#AAAAAA;}
</style>
<g>
	<path class="st0" d="M48,56c-14.3,0-26-11.7-26-26S33.7,4,48,4s26,11.7,26,26S62.3,56,48,56z M48,12c-9.9,0-18,8.1-18,18
		s8.1,18,18,18s18-8.1,18-18S57.9,12,48,12z"/>
</g>
<g>
	<path class="st0" d="M12,92.1L4,92c0.3-24.3,20.1-44,44-44c24,0,43.7,19.7,44,44l-8,0.1C83.7,72.2,67.6,56,48,56
		C28.5,56,12.3,72.2,12,92.1z"/>
</g>
</svg>
